<?xml version="1.0" encoding="UTF-8"?>
<svg width="419px" height="80px" viewBox="0 0 419 80" version="1.1" xmlns="http://www.w3.org/2000/svg" xmlns:xlink="http://www.w3.org/1999/xlink">
    <g id="Page-1" stroke="none" stroke-width="1" fill="none" fill-rule="evenodd">
        <g id="LL_Logo_Master_Horizontal" transform="translate(-70.000000, -61.000000)">
            <g id="Group" transform="translate(70.004000, 61.606600)">
                <path d="M143.498,47.1006 C144.698,39.9996 149.299,35.3996 156.1,35.3996 C163.199,35.3996 167.8,39.9996 168,47.1006 L143.498,47.1006 Z M155.999,24.0986 C139.599,24.0986 128.298,35.0996 128.298,51.7006 C128.298,68.0016 139.198,79.0016 156.399,79.0016 C166.1,79.0016 174,75.5016 179.4,69.5016 L171.3,61.3006 C167.6,65.0006 162.8,67.0006 157.699,67.0006 C150.799,67.0006 145.599,63.0006 143.799,56.2016 L182.4,56.2016 C183.701,36.5996 174.9,24.0986 155.999,24.0986 L155.999,24.0986 Z M114.6,24.5986 L101.999,63.8006 L89.299,24.5986 L73.397,24.6986 L93.799,78.4026 L109.6,78.4026 L129.901,24.5986 L114.6,24.5986 Z M51.9,78.4026 L67.3,78.4026 L67.3,24.5986 L51.9,24.5986 L51.9,78.4026 Z M15.801,8.3976 L2.84217094e-14,8.3976 L2.84217094e-14,78.4026 L45.803,78.4026 L45.803,64.6016 L15.801,64.6016 L15.801,8.3976 Z M389.595,66.6016 C381.494,66.6016 376.094,60.5006 375.994,51.7006 C376.094,42.9996 381.594,36.7996 389.595,36.7996 C397.495,36.7996 402.995,42.8996 402.995,51.7006 C402.995,60.5006 397.495,66.6016 389.595,66.6016 L389.595,66.6016 Z M402.995,4.1976 L402.995,32.4986 C399.096,26.9986 393.195,23.9986 385.595,23.9986 C370.594,23.9986 360.593,34.8996 360.593,51.3006 C360.593,67.9016 370.693,79.0016 385.994,79.0016 C393.394,79.0016 399.195,76.0016 402.995,70.5016 L402.995,78.4026 L418.296,78.4026 L418.296,4.1976 L402.995,4.1976 Z M334.196,23.9986 C325.796,24.0986 319.395,27.2986 315.595,33.9986 L315.595,24.5986 L300.194,24.5986 L300.194,78.4026 L315.595,78.4026 L315.595,51.9006 C315.595,43.9996 320.195,38.1996 327.895,38.0996 C334.496,38.0996 338.496,42.2996 338.496,49.1006 L338.496,78.4026 L353.897,78.4026 L353.897,44.5996 C353.897,31.9986 346.197,23.9986 334.196,23.9986 L334.196,23.9986 Z M254.472,47.1006 C255.672,39.9996 260.271,35.3996 267.072,35.3996 C274.173,35.3996 278.773,39.9996 278.973,47.1006 L254.472,47.1006 Z M266.973,24.0986 C250.571,24.0986 239.27,35.0996 239.27,51.7006 C239.27,68.0016 250.171,79.0016 267.372,79.0016 C277.073,79.0016 284.974,75.5016 290.374,69.5016 L282.273,61.3006 C278.573,65.0006 273.772,67.0006 268.673,67.0006 C261.772,67.0006 256.571,63.0006 254.771,56.2016 L293.374,56.2016 C294.674,36.5996 285.873,24.0986 266.973,24.0986 L266.973,24.0986 Z M206.272,8.3976 L190.471,8.3976 L190.471,78.4026 L236.274,78.4026 L236.274,64.6016 L206.272,64.6016 L206.272,8.3976 Z" id="Fill-1" fill="#FFFFFF"></path>
                <path d="M59.6006,0 C54.7676,0 50.8496,3.918 50.8496,8.75 C50.8496,13.583 54.7676,17.501 59.6006,17.501 C64.4336,17.501 68.3506,13.583 68.3506,8.75 C68.3506,3.918 64.4336,0 59.6006,0" id="Fill-3" fill="#00D264"></path>
            </g>
        </g>
    </g>
</svg>
